<svg width="250" height="59" viewBox="0 0 250 59" fill="none" xmlns="http://www.w3.org/2000/svg">
<mask id="mask0" mask-type="alpha" maskUnits="userSpaceOnUse" x="0" y="0" width="250" height="59">
<rect width="250" height="59" fill="#3A559F"/>
</mask>
<g mask="url(#mask0)">
<rect width="250" height="59" rx="4" fill="white"/>
<rect width="49" height="49" fill="white" transform="translate(25 5)"/>
<path d="M35.8594 34.6113L34.1538 40.9786L27.9198 41.1105C26.0568 37.6549 25 33.7014 25 29.5C25 25.4373 25.988 21.6061 27.7394 18.2327H27.7407L33.2908 19.2502L35.722 24.7669C35.2132 26.2504 34.9358 27.8429 34.9358 29.5C34.936 31.2984 35.2618 33.0216 35.8594 34.6113Z" fill="#FBBB00"/>
<path d="M73.5719 24.9231C73.8532 26.4052 74 27.9357 74 29.5C74 31.254 73.8155 32.965 73.4642 34.6154C72.2716 40.2316 69.1552 45.1356 64.8381 48.606L64.8368 48.6046L57.8462 48.248L56.8568 42.0718C59.7214 40.3918 61.9601 37.7627 63.1394 34.6154H50.0386V24.9231H63.3305H73.5719Z" fill="#518EF8"/>
<path d="M64.8367 48.6047L64.838 48.606C60.6395 51.9808 55.3059 54 49.5 54C40.1698 54 32.0579 48.7851 27.9198 41.1106L35.8594 34.6115C37.9284 40.1333 43.2552 44.0641 49.5 44.0641C52.1842 44.0641 54.6989 43.3385 56.8567 42.0718L64.8367 48.6047Z" fill="#28B446"/>
<path d="M65.1382 10.6404L57.2013 17.1382C54.9681 15.7423 52.3282 14.9359 49.5 14.9359C43.1138 14.9359 37.6874 19.047 35.7221 24.7669L27.7407 18.2327H27.7394C31.8169 10.3711 40.0311 5 49.5 5C55.4446 5 60.8952 7.11753 65.1382 10.6404Z" fill="#F14336"/>
</g>
</svg>
