<svg width="250" height="59" viewBox="0 0 250 59" fill="none" xmlns="http://www.w3.org/2000/svg">
<mask id="mask0" mask-type="alpha" maskUnits="userSpaceOnUse" x="0" y="0" width="250" height="59">
<rect width="250" height="59" fill="#3A559F"/>
</mask>
<g mask="url(#mask0)">
<rect width="250" height="59" rx="4" fill="white"/>
</g>
<rect width="42" height="43" fill="white" transform="translate(7 8)"/>
<path d="M16.3081 33.9854L14.8461 39.5731L9.50269 39.6888C7.90579 36.6564 7 33.1869 7 29.5C7 25.9348 7.84689 22.5727 9.34806 19.6124H9.34921L14.1064 20.5053L16.1903 25.3465C15.7541 26.6483 15.5164 28.0458 15.5164 29.5C15.5166 31.0782 15.7958 32.5904 16.3081 33.9854Z" fill="#FBBB00"/>
<path d="M48.6331 25.4835C48.8742 26.7841 49 28.1273 49 29.5C49 31.0393 48.8419 32.5407 48.5408 33.9891C47.5185 38.9175 44.8473 43.221 41.147 46.2665L41.1458 46.2653L35.1539 45.9523L34.3059 40.5324C36.7613 39.0581 38.6801 36.751 39.6909 33.9891H28.4617V25.4835H39.8547H48.6331Z" fill="#518EF8"/>
<path d="M41.1457 46.2653L41.1469 46.2665C37.5481 49.228 32.9765 51 28 51C20.0027 51 13.0496 46.4236 9.50269 39.6889L16.3081 33.9855C18.0815 38.8313 22.6473 42.2807 28 42.2807C30.3007 42.2807 32.4562 41.644 34.3057 40.5324L41.1457 46.2653Z" fill="#28B446"/>
<path d="M41.4042 12.9497L34.6011 18.6519C32.6869 17.4269 30.4241 16.7193 28 16.7193C22.5261 16.7193 17.8749 20.327 16.1903 25.3465L9.34917 19.6124H9.34802C12.843 12.7135 19.8838 8 28 8C33.0953 8 37.7673 9.85824 41.4042 12.9497Z" fill="#F14336"/>
<path d="M70.9639 30.6128C69.597 30.2199 68.6009 29.7384 67.9756 29.1685C67.3558 28.5929 67.0459 27.8846 67.0459 27.0435C67.0459 26.0916 67.425 25.3058 68.1831 24.686C68.9468 24.0607 69.9373 23.748 71.1548 23.748C71.9849 23.748 72.7236 23.9085 73.3711 24.2295C74.0241 24.5505 74.5277 24.9932 74.8818 25.5576C75.2415 26.1221 75.4214 26.7391 75.4214 27.4087H73.8193C73.8193 26.6782 73.5869 26.1055 73.1221 25.6904C72.6572 25.2699 72.0015 25.0596 71.1548 25.0596C70.369 25.0596 69.7547 25.2339 69.312 25.5825C68.8748 25.9256 68.6562 26.4043 68.6562 27.0186C68.6562 27.5111 68.8638 27.9289 69.2788 28.272C69.6994 28.6095 70.4105 28.9194 71.4121 29.2017C72.4193 29.4839 73.2051 29.7965 73.7695 30.1396C74.3395 30.4772 74.7601 30.8729 75.0312 31.3267C75.3079 31.7804 75.4463 32.3145 75.4463 32.9287C75.4463 33.9082 75.0645 34.694 74.3008 35.2861C73.5371 35.8727 72.5161 36.166 71.2378 36.166C70.4077 36.166 69.633 36.0083 68.9136 35.6929C68.1942 35.3719 67.638 34.9347 67.2451 34.3813C66.8577 33.828 66.6641 33.1999 66.6641 32.4971H68.2661C68.2661 33.2275 68.5345 33.8058 69.0713 34.2319C69.6136 34.6525 70.3358 34.8628 71.2378 34.8628C72.0789 34.8628 72.7236 34.6912 73.1719 34.3481C73.6201 34.005 73.8442 33.5374 73.8442 32.9453C73.8442 32.3532 73.6367 31.8966 73.2217 31.5757C72.8066 31.2492 72.054 30.9282 70.9639 30.6128ZM78.9243 36H77.3887V27.0186H78.9243V36ZM77.2642 24.6362C77.2642 24.3872 77.3389 24.1769 77.4883 24.0054C77.6432 23.8338 77.8701 23.748 78.1689 23.748C78.4678 23.748 78.6947 23.8338 78.8496 24.0054C79.0046 24.1769 79.082 24.3872 79.082 24.6362C79.082 24.8853 79.0046 25.0928 78.8496 25.2588C78.6947 25.4248 78.4678 25.5078 78.1689 25.5078C77.8701 25.5078 77.6432 25.4248 77.4883 25.2588C77.3389 25.0928 77.2642 24.8853 77.2642 24.6362ZM81.0244 31.4346C81.0244 30.0345 81.3481 28.9222 81.9956 28.0977C82.6431 27.2676 83.5008 26.8525 84.5688 26.8525C85.6646 26.8525 86.5195 27.2399 87.1338 28.0146L87.2085 27.0186H88.6113V35.7842C88.6113 36.9463 88.2655 37.8621 87.5737 38.5317C86.8875 39.2013 85.9634 39.5361 84.8013 39.5361C84.1538 39.5361 83.5202 39.3978 82.9004 39.1211C82.2806 38.8444 81.8075 38.4653 81.481 37.9839L82.2778 37.0625C82.9364 37.876 83.7415 38.2827 84.6934 38.2827C85.4404 38.2827 86.0215 38.0724 86.4365 37.6519C86.8571 37.2313 87.0674 36.6392 87.0674 35.8755V35.1035C86.4531 35.8118 85.6147 36.166 84.5522 36.166C83.5008 36.166 82.6486 35.7427 81.9956 34.896C81.3481 34.0493 81.0244 32.8955 81.0244 31.4346ZM82.5684 31.6089C82.5684 32.6216 82.7759 33.4185 83.1909 33.9995C83.606 34.575 84.187 34.8628 84.9341 34.8628C85.9025 34.8628 86.6136 34.4229 87.0674 33.543V29.4424C86.597 28.5846 85.8914 28.1558 84.9507 28.1558C84.2036 28.1558 83.6198 28.4463 83.1992 29.0273C82.7786 29.6084 82.5684 30.4689 82.5684 31.6089ZM92.3882 27.0186L92.438 28.1475C93.1242 27.2842 94.0207 26.8525 95.1274 26.8525C97.0256 26.8525 97.9829 27.9233 97.9995 30.0649V36H96.4639V30.0566C96.4583 29.4092 96.3089 28.9305 96.0156 28.6206C95.7279 28.3107 95.2769 28.1558 94.6626 28.1558C94.1646 28.1558 93.7274 28.2886 93.3511 28.5542C92.9748 28.8198 92.6815 29.1685 92.4712 29.6001V36H90.9355V27.0186H92.3882ZM106.483 36H104.889V23.9141H106.483V36ZM110.617 27.0186L110.667 28.1475C111.353 27.2842 112.249 26.8525 113.356 26.8525C115.254 26.8525 116.211 27.9233 116.228 30.0649V36H114.692V30.0566C114.687 29.4092 114.537 28.9305 114.244 28.6206C113.956 28.3107 113.505 28.1558 112.891 28.1558C112.393 28.1558 111.956 28.2886 111.58 28.5542C111.203 28.8198 110.91 29.1685 110.7 29.6001V36H109.164V27.0186H110.617ZM130.713 33.8833L132.439 27.0186H133.975L131.36 36H130.115L127.932 29.1934L125.807 36H124.562L121.956 27.0186H123.483L125.251 33.7422L127.343 27.0186H128.58L130.713 33.8833ZM137.212 36H135.677V27.0186H137.212V36ZM135.552 24.6362C135.552 24.3872 135.627 24.1769 135.776 24.0054C135.931 23.8338 136.158 23.748 136.457 23.748C136.756 23.748 136.983 23.8338 137.138 24.0054C137.293 24.1769 137.37 24.3872 137.37 24.6362C137.37 24.8853 137.293 25.0928 137.138 25.2588C136.983 25.4248 136.756 25.5078 136.457 25.5078C136.158 25.5078 135.931 25.4248 135.776 25.2588C135.627 25.0928 135.552 24.8853 135.552 24.6362ZM141.761 24.8438V27.0186H143.438V28.2056H141.761V33.7754C141.761 34.1351 141.836 34.4062 141.985 34.5889C142.135 34.766 142.389 34.8545 142.749 34.8545C142.926 34.8545 143.17 34.8213 143.479 34.7549V36C143.076 36.1107 142.683 36.166 142.301 36.166C141.615 36.166 141.097 35.9585 140.749 35.5435C140.4 35.1284 140.226 34.5391 140.226 33.7754V28.2056H138.59V27.0186H140.226V24.8438H141.761ZM146.775 28.106C147.456 27.2703 148.341 26.8525 149.431 26.8525C151.329 26.8525 152.287 27.9233 152.303 30.0649V36H150.768V30.0566C150.762 29.4092 150.613 28.9305 150.319 28.6206C150.032 28.3107 149.581 28.1558 148.966 28.1558C148.468 28.1558 148.031 28.2886 147.655 28.5542C147.278 28.8198 146.985 29.1685 146.775 29.6001V36H145.239V23.25H146.775V28.106ZM167.983 34.4146C167.574 35.0011 167.001 35.4411 166.265 35.7344C165.535 36.0221 164.682 36.166 163.708 36.166C162.723 36.166 161.849 35.9364 161.085 35.4771C160.322 35.0122 159.73 34.3537 159.309 33.5015C158.894 32.6493 158.681 31.6615 158.67 30.5381V29.4839C158.67 27.6632 159.093 26.2521 159.94 25.2505C160.792 24.2489 161.987 23.748 163.526 23.748C164.788 23.748 165.803 24.0718 166.572 24.7192C167.341 25.3612 167.812 26.2743 167.983 27.4585H166.39C166.091 25.8592 165.139 25.0596 163.534 25.0596C162.466 25.0596 161.655 25.4359 161.102 26.1885C160.554 26.9355 160.278 28.0202 160.272 29.4424V30.4302C160.272 31.786 160.582 32.8651 161.202 33.6675C161.821 34.4644 162.66 34.8628 163.717 34.8628C164.314 34.8628 164.837 34.7964 165.286 34.6636C165.734 34.5308 166.105 34.3066 166.398 33.9912V31.2769H163.601V29.9819H167.983V34.4146ZM170 31.4263C170 30.5464 170.172 29.755 170.515 29.0522C170.864 28.3494 171.345 27.8071 171.959 27.4253C172.579 27.0435 173.285 26.8525 174.076 26.8525C175.299 26.8525 176.287 27.2759 177.04 28.1226C177.798 28.9692 178.177 30.0954 178.177 31.501V31.6089C178.177 32.4832 178.008 33.269 177.67 33.9663C177.338 34.658 176.86 35.1976 176.234 35.585C175.615 35.9723 174.901 36.166 174.093 36.166C172.875 36.166 171.888 35.7427 171.129 34.896C170.377 34.0493 170 32.9287 170 31.5342V31.4263ZM171.544 31.6089C171.544 32.605 171.774 33.4046 172.233 34.0078C172.698 34.611 173.318 34.9126 174.093 34.9126C174.873 34.9126 175.493 34.6082 175.952 33.9995C176.411 33.3853 176.641 32.5275 176.641 31.4263C176.641 30.4412 176.406 29.6444 175.936 29.0356C175.471 28.4214 174.851 28.1143 174.076 28.1143C173.318 28.1143 172.707 28.4159 172.242 29.019C171.777 29.6222 171.544 30.4855 171.544 31.6089ZM179.696 31.4263C179.696 30.5464 179.867 29.755 180.21 29.0522C180.559 28.3494 181.041 27.8071 181.655 27.4253C182.275 27.0435 182.98 26.8525 183.771 26.8525C184.994 26.8525 185.982 27.2759 186.735 28.1226C187.493 28.9692 187.872 30.0954 187.872 31.501V31.6089C187.872 32.4832 187.703 33.269 187.366 33.9663C187.034 34.658 186.555 35.1976 185.93 35.585C185.31 35.9723 184.596 36.166 183.788 36.166C182.571 36.166 181.583 35.7427 180.825 34.896C180.072 34.0493 179.696 32.9287 179.696 31.5342V31.4263ZM181.24 31.6089C181.24 32.605 181.469 33.4046 181.929 34.0078C182.394 34.611 183.013 34.9126 183.788 34.9126C184.568 34.9126 185.188 34.6082 185.647 33.9995C186.107 33.3853 186.336 32.5275 186.336 31.4263C186.336 30.4412 186.101 29.6444 185.631 29.0356C185.166 28.4214 184.546 28.1143 183.771 28.1143C183.013 28.1143 182.402 28.4159 181.937 29.019C181.472 29.6222 181.24 30.4855 181.24 31.6089ZM189.433 31.4346C189.433 30.0345 189.756 28.9222 190.404 28.0977C191.051 27.2676 191.909 26.8525 192.977 26.8525C194.073 26.8525 194.928 27.2399 195.542 28.0146L195.617 27.0186H197.02V35.7842C197.02 36.9463 196.674 37.8621 195.982 38.5317C195.296 39.2013 194.372 39.5361 193.209 39.5361C192.562 39.5361 191.928 39.3978 191.309 39.1211C190.689 38.8444 190.216 38.4653 189.889 37.9839L190.686 37.0625C191.345 37.876 192.15 38.2827 193.102 38.2827C193.849 38.2827 194.43 38.0724 194.845 37.6519C195.265 37.2313 195.476 36.6392 195.476 35.8755V35.1035C194.861 35.8118 194.023 36.166 192.96 36.166C191.909 36.166 191.057 35.7427 190.404 34.896C189.756 34.0493 189.433 32.8955 189.433 31.4346ZM190.977 31.6089C190.977 32.6216 191.184 33.4185 191.599 33.9995C192.014 34.575 192.595 34.8628 193.342 34.8628C194.311 34.8628 195.022 34.4229 195.476 33.543V29.4424C195.005 28.5846 194.3 28.1558 193.359 28.1558C192.612 28.1558 192.028 28.4463 191.607 29.0273C191.187 29.6084 190.977 30.4689 190.977 31.6089ZM201.012 36H199.477V23.25H201.012V36ZM207.205 36.166C205.987 36.166 204.997 35.7676 204.233 34.9707C203.469 34.1683 203.087 33.0975 203.087 31.7583V31.4761C203.087 30.5851 203.256 29.791 203.594 29.0938C203.937 28.391 204.413 27.8431 205.021 27.4502C205.636 27.0518 206.3 26.8525 207.014 26.8525C208.181 26.8525 209.089 27.2371 209.736 28.0063C210.384 28.7756 210.708 29.8768 210.708 31.3101V31.9492H204.623C204.645 32.8346 204.903 33.5513 205.395 34.0991C205.893 34.6414 206.524 34.9126 207.288 34.9126C207.83 34.9126 208.289 34.8019 208.666 34.5806C209.042 34.3592 209.371 34.0659 209.653 33.7007L210.591 34.4312C209.839 35.5877 208.71 36.166 207.205 36.166ZM207.014 28.1143C206.394 28.1143 205.874 28.3411 205.453 28.7949C205.033 29.2432 204.772 29.874 204.673 30.6875H209.172V30.5713C209.128 29.791 208.917 29.1878 208.541 28.7617C208.165 28.3301 207.656 28.1143 207.014 28.1143Z" fill="#5C8FF1"/>
<line x1="54.125" y1="1" x2="54.125" y2="59" stroke="#E5E5E5" stroke-width="0.25"/>
</svg>
