<svg width="250" height="59" viewBox="0 0 250 59" fill="none" xmlns="http://www.w3.org/2000/svg">
<mask id="mask0" mask-type="alpha" maskUnits="userSpaceOnUse" x="0" y="0" width="250" height="59">
<rect width="250" height="59" fill="#3A559F"/>
</mask>
<g mask="url(#mask0)">
<rect width="250" height="59" rx="4" fill="#3A559F"/>
<rect width="50" height="45" fill="white" transform="translate(-7 7)"/>
<path d="M-7 7V52H19.628V34.6174H13.1187V27.5214H19.628V21.562C19.628 17.2279 23.5319 13.7144 28.3476 13.7144H35.1526V20.0954H30.2833C28.7531 20.0954 27.5125 21.2118 27.5125 22.589V27.5215H35.0303L33.9913 34.6175H27.5125V52H43V7H-7Z" fill="#3A559F"/>
<path d="M70.9639 31.6128C69.597 31.2199 68.6009 30.7384 67.9756 30.1685C67.3558 29.5929 67.0459 28.8846 67.0459 28.0435C67.0459 27.0916 67.425 26.3058 68.1831 25.686C68.9468 25.0607 69.9373 24.748 71.1548 24.748C71.9849 24.748 72.7236 24.9085 73.3711 25.2295C74.0241 25.5505 74.5277 25.9932 74.8818 26.5576C75.2415 27.1221 75.4214 27.7391 75.4214 28.4087H73.8193C73.8193 27.6782 73.5869 27.1055 73.1221 26.6904C72.6572 26.2699 72.0015 26.0596 71.1548 26.0596C70.369 26.0596 69.7547 26.2339 69.312 26.5825C68.8748 26.9256 68.6562 27.4043 68.6562 28.0186C68.6562 28.5111 68.8638 28.9289 69.2788 29.272C69.6994 29.6095 70.4105 29.9194 71.4121 30.2017C72.4193 30.4839 73.2051 30.7965 73.7695 31.1396C74.3395 31.4772 74.7601 31.8729 75.0312 32.3267C75.3079 32.7804 75.4463 33.3145 75.4463 33.9287C75.4463 34.9082 75.0645 35.694 74.3008 36.2861C73.5371 36.8727 72.5161 37.166 71.2378 37.166C70.4077 37.166 69.633 37.0083 68.9136 36.6929C68.1942 36.3719 67.638 35.9347 67.2451 35.3813C66.8577 34.828 66.6641 34.1999 66.6641 33.4971H68.2661C68.2661 34.2275 68.5345 34.8058 69.0713 35.2319C69.6136 35.6525 70.3358 35.8628 71.2378 35.8628C72.0789 35.8628 72.7236 35.6912 73.1719 35.3481C73.6201 35.005 73.8442 34.5374 73.8442 33.9453C73.8442 33.3532 73.6367 32.8966 73.2217 32.5757C72.8066 32.2492 72.054 31.9282 70.9639 31.6128ZM78.9243 37H77.3887V28.0186H78.9243V37ZM77.2642 25.6362C77.2642 25.3872 77.3389 25.1769 77.4883 25.0054C77.6432 24.8338 77.8701 24.748 78.1689 24.748C78.4678 24.748 78.6947 24.8338 78.8496 25.0054C79.0046 25.1769 79.082 25.3872 79.082 25.6362C79.082 25.8853 79.0046 26.0928 78.8496 26.2588C78.6947 26.4248 78.4678 26.5078 78.1689 26.5078C77.8701 26.5078 77.6432 26.4248 77.4883 26.2588C77.3389 26.0928 77.2642 25.8853 77.2642 25.6362ZM81.0244 32.4346C81.0244 31.0345 81.3481 29.9222 81.9956 29.0977C82.6431 28.2676 83.5008 27.8525 84.5688 27.8525C85.6646 27.8525 86.5195 28.2399 87.1338 29.0146L87.2085 28.0186H88.6113V36.7842C88.6113 37.9463 88.2655 38.8621 87.5737 39.5317C86.8875 40.2013 85.9634 40.5361 84.8013 40.5361C84.1538 40.5361 83.5202 40.3978 82.9004 40.1211C82.2806 39.8444 81.8075 39.4653 81.481 38.9839L82.2778 38.0625C82.9364 38.876 83.7415 39.2827 84.6934 39.2827C85.4404 39.2827 86.0215 39.0724 86.4365 38.6519C86.8571 38.2313 87.0674 37.6392 87.0674 36.8755V36.1035C86.4531 36.8118 85.6147 37.166 84.5522 37.166C83.5008 37.166 82.6486 36.7427 81.9956 35.896C81.3481 35.0493 81.0244 33.8955 81.0244 32.4346ZM82.5684 32.6089C82.5684 33.6216 82.7759 34.4185 83.1909 34.9995C83.606 35.575 84.187 35.8628 84.9341 35.8628C85.9025 35.8628 86.6136 35.4229 87.0674 34.543V30.4424C86.597 29.5846 85.8914 29.1558 84.9507 29.1558C84.2036 29.1558 83.6198 29.4463 83.1992 30.0273C82.7786 30.6084 82.5684 31.4689 82.5684 32.6089ZM92.3882 28.0186L92.438 29.1475C93.1242 28.2842 94.0207 27.8525 95.1274 27.8525C97.0256 27.8525 97.9829 28.9233 97.9995 31.0649V37H96.4639V31.0566C96.4583 30.4092 96.3089 29.9305 96.0156 29.6206C95.7279 29.3107 95.2769 29.1558 94.6626 29.1558C94.1646 29.1558 93.7274 29.2886 93.3511 29.5542C92.9748 29.8198 92.6815 30.1685 92.4712 30.6001V37H90.9355V28.0186H92.3882ZM106.483 37H104.889V24.9141H106.483V37ZM110.617 28.0186L110.667 29.1475C111.353 28.2842 112.249 27.8525 113.356 27.8525C115.254 27.8525 116.211 28.9233 116.228 31.0649V37H114.692V31.0566C114.687 30.4092 114.537 29.9305 114.244 29.6206C113.956 29.3107 113.505 29.1558 112.891 29.1558C112.393 29.1558 111.956 29.2886 111.58 29.5542C111.203 29.8198 110.91 30.1685 110.7 30.6001V37H109.164V28.0186H110.617ZM130.713 34.8833L132.439 28.0186H133.975L131.36 37H130.115L127.932 30.1934L125.807 37H124.562L121.956 28.0186H123.483L125.251 34.7422L127.343 28.0186H128.58L130.713 34.8833ZM137.212 37H135.677V28.0186H137.212V37ZM135.552 25.6362C135.552 25.3872 135.627 25.1769 135.776 25.0054C135.931 24.8338 136.158 24.748 136.457 24.748C136.756 24.748 136.983 24.8338 137.138 25.0054C137.293 25.1769 137.37 25.3872 137.37 25.6362C137.37 25.8853 137.293 26.0928 137.138 26.2588C136.983 26.4248 136.756 26.5078 136.457 26.5078C136.158 26.5078 135.931 26.4248 135.776 26.2588C135.627 26.0928 135.552 25.8853 135.552 25.6362ZM141.761 25.8438V28.0186H143.438V29.2056H141.761V34.7754C141.761 35.1351 141.836 35.4062 141.985 35.5889C142.135 35.766 142.389 35.8545 142.749 35.8545C142.926 35.8545 143.17 35.8213 143.479 35.7549V37C143.076 37.1107 142.683 37.166 142.301 37.166C141.615 37.166 141.097 36.9585 140.749 36.5435C140.4 36.1284 140.226 35.5391 140.226 34.7754V29.2056H138.59V28.0186H140.226V25.8438H141.761ZM146.775 29.106C147.456 28.2703 148.341 27.8525 149.431 27.8525C151.329 27.8525 152.287 28.9233 152.303 31.0649V37H150.768V31.0566C150.762 30.4092 150.613 29.9305 150.319 29.6206C150.032 29.3107 149.581 29.1558 148.966 29.1558C148.468 29.1558 148.031 29.2886 147.655 29.5542C147.278 29.8198 146.985 30.1685 146.775 30.6001V37H145.239V24.25H146.775V29.106ZM165.726 31.6626H160.654V37H159.06V24.9141H166.547V26.2256H160.654V30.3594H165.726V31.6626ZM173.479 37C173.39 36.8229 173.318 36.5075 173.263 36.0537C172.549 36.7952 171.697 37.166 170.706 37.166C169.821 37.166 169.093 36.917 168.523 36.4189C167.958 35.9154 167.676 35.279 167.676 34.5098C167.676 33.5745 168.03 32.8496 168.739 32.335C169.453 31.8148 170.454 31.5547 171.744 31.5547H173.238V30.8491C173.238 30.3123 173.077 29.8862 172.756 29.5708C172.435 29.2498 171.962 29.0894 171.337 29.0894C170.789 29.0894 170.33 29.2277 169.959 29.5044C169.588 29.7811 169.403 30.1159 169.403 30.5088H167.859C167.859 30.0605 168.017 29.6289 168.332 29.2139C168.653 28.7933 169.085 28.4613 169.627 28.2178C170.175 27.9743 170.775 27.8525 171.428 27.8525C172.463 27.8525 173.274 28.1126 173.86 28.6328C174.447 29.1475 174.751 29.8586 174.773 30.7661V34.8999C174.773 35.7244 174.879 36.3802 175.089 36.8672V37H173.479ZM170.93 35.8296C171.412 35.8296 171.868 35.7051 172.3 35.4561C172.731 35.207 173.044 34.8833 173.238 34.4849V32.6421H172.034C170.153 32.6421 169.212 33.1927 169.212 34.2939C169.212 34.7754 169.372 35.1517 169.693 35.4229C170.014 35.694 170.427 35.8296 170.93 35.8296ZM180.783 35.9126C181.331 35.9126 181.81 35.7466 182.219 35.4146C182.629 35.0825 182.856 34.6675 182.9 34.1694H184.353C184.325 34.6841 184.148 35.1738 183.821 35.6387C183.495 36.1035 183.058 36.4743 182.51 36.751C181.967 37.0277 181.392 37.166 180.783 37.166C179.56 37.166 178.586 36.7593 177.861 35.9458C177.142 35.1268 176.782 34.009 176.782 32.5923V32.335C176.782 31.4606 176.943 30.6831 177.264 30.0024C177.585 29.3218 178.044 28.7933 178.642 28.417C179.245 28.0407 179.956 27.8525 180.775 27.8525C181.782 27.8525 182.618 28.1541 183.282 28.7573C183.951 29.3605 184.308 30.1436 184.353 31.1064H182.9C182.856 30.5254 182.634 30.0495 182.236 29.6787C181.843 29.3024 181.356 29.1143 180.775 29.1143C179.995 29.1143 179.389 29.3965 178.957 29.9609C178.531 30.5199 178.318 31.3306 178.318 32.3931V32.6836C178.318 33.7184 178.531 34.5153 178.957 35.0742C179.383 35.6331 179.992 35.9126 180.783 35.9126ZM189.806 37.166C188.589 37.166 187.598 36.7676 186.834 35.9707C186.071 35.1683 185.689 34.0975 185.689 32.7583V32.4761C185.689 31.5851 185.858 30.791 186.195 30.0938C186.538 29.391 187.014 28.8431 187.623 28.4502C188.237 28.0518 188.901 27.8525 189.615 27.8525C190.783 27.8525 191.69 28.2371 192.338 29.0063C192.985 29.7756 193.309 30.8768 193.309 32.3101V32.9492H187.225C187.247 33.8346 187.504 34.5513 187.997 35.0991C188.495 35.6414 189.125 35.9126 189.889 35.9126C190.431 35.9126 190.891 35.8019 191.267 35.5806C191.643 35.3592 191.973 35.0659 192.255 34.7007L193.193 35.4312C192.44 36.5877 191.311 37.166 189.806 37.166ZM189.615 29.1143C188.995 29.1143 188.475 29.3411 188.055 29.7949C187.634 30.2432 187.374 30.874 187.274 31.6875H191.773V31.5713C191.729 30.791 191.519 30.1878 191.143 29.7617C190.766 29.3301 190.257 29.1143 189.615 29.1143ZM202.697 32.6089C202.697 33.9813 202.382 35.0853 201.751 35.9209C201.12 36.751 200.273 37.166 199.211 37.166C198.076 37.166 197.199 36.7648 196.58 35.9624L196.505 37H195.094V24.25H196.629V29.0063C197.249 28.2371 198.104 27.8525 199.194 27.8525C200.285 27.8525 201.139 28.2648 201.759 29.0894C202.385 29.9139 202.697 31.0428 202.697 32.4761V32.6089ZM201.162 32.4346C201.162 31.3887 200.96 30.5807 200.556 30.0107C200.152 29.4408 199.571 29.1558 198.812 29.1558C197.8 29.1558 197.072 29.6261 196.629 30.5669V34.4517C197.1 35.3924 197.833 35.8628 198.829 35.8628C199.565 35.8628 200.138 35.5778 200.547 35.0078C200.957 34.4378 201.162 33.5801 201.162 32.4346ZM204.233 32.4263C204.233 31.5464 204.404 30.755 204.748 30.0522C205.096 29.3494 205.578 28.8071 206.192 28.4253C206.812 28.0435 207.517 27.8525 208.309 27.8525C209.532 27.8525 210.519 28.2759 211.272 29.1226C212.03 29.9692 212.409 31.0954 212.409 32.501V32.6089C212.409 33.4832 212.24 34.269 211.903 34.9663C211.571 35.658 211.092 36.1976 210.467 36.585C209.847 36.9723 209.133 37.166 208.325 37.166C207.108 37.166 206.12 36.7427 205.362 35.896C204.609 35.0493 204.233 33.9287 204.233 32.5342V32.4263ZM205.777 32.6089C205.777 33.605 206.007 34.4046 206.466 35.0078C206.931 35.611 207.55 35.9126 208.325 35.9126C209.105 35.9126 209.725 35.6082 210.185 34.9995C210.644 34.3853 210.874 33.5275 210.874 32.4263C210.874 31.4412 210.638 30.6444 210.168 30.0356C209.703 29.4214 209.083 29.1143 208.309 29.1143C207.55 29.1143 206.939 29.4159 206.474 30.019C206.009 30.6222 205.777 31.4855 205.777 32.6089ZM213.928 32.4263C213.928 31.5464 214.1 30.755 214.443 30.0522C214.792 29.3494 215.273 28.8071 215.887 28.4253C216.507 28.0435 217.213 27.8525 218.004 27.8525C219.227 27.8525 220.215 28.2759 220.967 29.1226C221.725 29.9692 222.104 31.0954 222.104 32.501V32.6089C222.104 33.4832 221.936 34.269 221.598 34.9663C221.266 35.658 220.787 36.1976 220.162 36.585C219.542 36.9723 218.828 37.166 218.021 37.166C216.803 37.166 215.815 36.7427 215.057 35.896C214.305 35.0493 213.928 33.9287 213.928 32.5342V32.4263ZM215.472 32.6089C215.472 33.605 215.702 34.4046 216.161 35.0078C216.626 35.611 217.246 35.9126 218.021 35.9126C218.801 35.9126 219.421 35.6082 219.88 34.9995C220.339 34.3853 220.569 33.5275 220.569 32.4263C220.569 31.4412 220.334 30.6444 219.863 30.0356C219.398 29.4214 218.779 29.1143 218.004 29.1143C217.246 29.1143 216.634 29.4159 216.169 30.019C215.705 30.6222 215.472 31.4855 215.472 32.6089ZM226.537 32.8413L225.574 33.8457V37H224.039V24.25H225.574V31.9614L226.396 30.9736L229.193 28.0186H231.061L227.566 31.7705L231.468 37H229.667L226.537 32.8413Z" fill="white"/>
<line x1="54.125" x2="54.125" y2="58" stroke="#E5E5E5" stroke-width="0.25"/>
</g>
</svg>
