<svg width="250" height="59" viewBox="0 0 250 59" fill="none" xmlns="http://www.w3.org/2000/svg">
<mask id="mask0" mask-type="alpha" maskUnits="userSpaceOnUse" x="0" y="0" width="250" height="59">
<rect width="250" height="59" fill="#3A559F"/>
</mask>
<g mask="url(#mask0)">
<rect width="250" height="59" rx="4" fill="#50ABF1"/>
</g>
<rect width="52" height="52" fill="white" transform="translate(2 4)"/>
<path d="M54 4H2V56H54V4Z" fill="#50ABF1"/>
<path d="M8.88913 42.5463C12.3499 44.7412 16.455 46.0114 20.8556 46.0114C33.2185 46.0114 43.2402 35.9885 43.2402 23.6268C43.2402 23.3181 43.2337 23.0117 43.2219 22.7063C43.669 22.3544 46.4346 20.1377 47.1125 18.7127C47.1125 18.7127 44.8666 19.6461 42.6686 19.8659C42.6642 19.8659 42.6589 19.867 42.6545 19.867C42.6545 19.867 42.6589 19.8648 42.6664 19.8594C42.8689 19.7241 45.7005 17.7966 46.0839 15.4999C46.0839 15.4999 44.4954 16.3478 42.2712 17.0896C41.903 17.2119 41.5175 17.3322 41.1201 17.4437C39.6864 15.9135 37.6485 14.9585 35.3864 14.9585C31.0475 14.9585 27.5315 18.4734 27.5315 22.8091C27.5315 23.4209 27.6019 24.0164 27.7351 24.5882C27.1287 24.5633 17.8952 24.0456 11.6137 16.4386C11.6137 16.4386 7.85947 21.5638 13.8509 26.8339C13.8509 26.8339 12.0296 26.7614 10.4583 25.8225C10.4583 25.8225 9.88114 32.0315 16.6662 33.619C16.6662 33.619 15.3311 34.1247 13.2012 33.7642C13.2012 33.7642 14.3923 38.781 20.4205 39.2499C20.4205 39.2499 15.6537 43.5561 8.88696 42.5457L8.88913 42.5463Z" fill="white"/>
<path d="M70.9639 30.6128C69.597 30.2199 68.6009 29.7384 67.9756 29.1685C67.3558 28.5929 67.0459 27.8846 67.0459 27.0435C67.0459 26.0916 67.425 25.3058 68.1831 24.686C68.9468 24.0607 69.9373 23.748 71.1548 23.748C71.9849 23.748 72.7236 23.9085 73.3711 24.2295C74.0241 24.5505 74.5277 24.9932 74.8818 25.5576C75.2415 26.1221 75.4214 26.7391 75.4214 27.4087H73.8193C73.8193 26.6782 73.5869 26.1055 73.1221 25.6904C72.6572 25.2699 72.0015 25.0596 71.1548 25.0596C70.369 25.0596 69.7547 25.2339 69.312 25.5825C68.8748 25.9256 68.6562 26.4043 68.6562 27.0186C68.6562 27.5111 68.8638 27.9289 69.2788 28.272C69.6994 28.6095 70.4105 28.9194 71.4121 29.2017C72.4193 29.4839 73.2051 29.7965 73.7695 30.1396C74.3395 30.4772 74.7601 30.8729 75.0312 31.3267C75.3079 31.7804 75.4463 32.3145 75.4463 32.9287C75.4463 33.9082 75.0645 34.694 74.3008 35.2861C73.5371 35.8727 72.5161 36.166 71.2378 36.166C70.4077 36.166 69.633 36.0083 68.9136 35.6929C68.1942 35.3719 67.638 34.9347 67.2451 34.3813C66.8577 33.828 66.6641 33.1999 66.6641 32.4971H68.2661C68.2661 33.2275 68.5345 33.8058 69.0713 34.2319C69.6136 34.6525 70.3358 34.8628 71.2378 34.8628C72.0789 34.8628 72.7236 34.6912 73.1719 34.3481C73.6201 34.005 73.8442 33.5374 73.8442 32.9453C73.8442 32.3532 73.6367 31.8966 73.2217 31.5757C72.8066 31.2492 72.054 30.9282 70.9639 30.6128ZM78.9243 36H77.3887V27.0186H78.9243V36ZM77.2642 24.6362C77.2642 24.3872 77.3389 24.1769 77.4883 24.0054C77.6432 23.8338 77.8701 23.748 78.1689 23.748C78.4678 23.748 78.6947 23.8338 78.8496 24.0054C79.0046 24.1769 79.082 24.3872 79.082 24.6362C79.082 24.8853 79.0046 25.0928 78.8496 25.2588C78.6947 25.4248 78.4678 25.5078 78.1689 25.5078C77.8701 25.5078 77.6432 25.4248 77.4883 25.2588C77.3389 25.0928 77.2642 24.8853 77.2642 24.6362ZM81.0244 31.4346C81.0244 30.0345 81.3481 28.9222 81.9956 28.0977C82.6431 27.2676 83.5008 26.8525 84.5688 26.8525C85.6646 26.8525 86.5195 27.2399 87.1338 28.0146L87.2085 27.0186H88.6113V35.7842C88.6113 36.9463 88.2655 37.8621 87.5737 38.5317C86.8875 39.2013 85.9634 39.5361 84.8013 39.5361C84.1538 39.5361 83.5202 39.3978 82.9004 39.1211C82.2806 38.8444 81.8075 38.4653 81.481 37.9839L82.2778 37.0625C82.9364 37.876 83.7415 38.2827 84.6934 38.2827C85.4404 38.2827 86.0215 38.0724 86.4365 37.6519C86.8571 37.2313 87.0674 36.6392 87.0674 35.8755V35.1035C86.4531 35.8118 85.6147 36.166 84.5522 36.166C83.5008 36.166 82.6486 35.7427 81.9956 34.896C81.3481 34.0493 81.0244 32.8955 81.0244 31.4346ZM82.5684 31.6089C82.5684 32.6216 82.7759 33.4185 83.1909 33.9995C83.606 34.575 84.187 34.8628 84.9341 34.8628C85.9025 34.8628 86.6136 34.4229 87.0674 33.543V29.4424C86.597 28.5846 85.8914 28.1558 84.9507 28.1558C84.2036 28.1558 83.6198 28.4463 83.1992 29.0273C82.7786 29.6084 82.5684 30.4689 82.5684 31.6089ZM92.3882 27.0186L92.438 28.1475C93.1242 27.2842 94.0207 26.8525 95.1274 26.8525C97.0256 26.8525 97.9829 27.9233 97.9995 30.0649V36H96.4639V30.0566C96.4583 29.4092 96.3089 28.9305 96.0156 28.6206C95.7279 28.3107 95.2769 28.1558 94.6626 28.1558C94.1646 28.1558 93.7274 28.2886 93.3511 28.5542C92.9748 28.8198 92.6815 29.1685 92.4712 29.6001V36H90.9355V27.0186H92.3882ZM106.483 36H104.889V23.9141H106.483V36ZM110.617 27.0186L110.667 28.1475C111.353 27.2842 112.249 26.8525 113.356 26.8525C115.254 26.8525 116.211 27.9233 116.228 30.0649V36H114.692V30.0566C114.687 29.4092 114.537 28.9305 114.244 28.6206C113.956 28.3107 113.505 28.1558 112.891 28.1558C112.393 28.1558 111.956 28.2886 111.58 28.5542C111.203 28.8198 110.91 29.1685 110.7 29.6001V36H109.164V27.0186H110.617ZM130.713 33.8833L132.439 27.0186H133.975L131.36 36H130.115L127.932 29.1934L125.807 36H124.562L121.956 27.0186H123.483L125.251 33.7422L127.343 27.0186H128.58L130.713 33.8833ZM137.212 36H135.677V27.0186H137.212V36ZM135.552 24.6362C135.552 24.3872 135.627 24.1769 135.776 24.0054C135.931 23.8338 136.158 23.748 136.457 23.748C136.756 23.748 136.983 23.8338 137.138 24.0054C137.293 24.1769 137.37 24.3872 137.37 24.6362C137.37 24.8853 137.293 25.0928 137.138 25.2588C136.983 25.4248 136.756 25.5078 136.457 25.5078C136.158 25.5078 135.931 25.4248 135.776 25.2588C135.627 25.0928 135.552 24.8853 135.552 24.6362ZM141.761 24.8438V27.0186H143.438V28.2056H141.761V33.7754C141.761 34.1351 141.836 34.4062 141.985 34.5889C142.135 34.766 142.389 34.8545 142.749 34.8545C142.926 34.8545 143.17 34.8213 143.479 34.7549V36C143.076 36.1107 142.683 36.166 142.301 36.166C141.615 36.166 141.097 35.9585 140.749 35.5435C140.4 35.1284 140.226 34.5391 140.226 33.7754V28.2056H138.59V27.0186H140.226V24.8438H141.761ZM146.775 28.106C147.456 27.2703 148.341 26.8525 149.431 26.8525C151.329 26.8525 152.287 27.9233 152.303 30.0649V36H150.768V30.0566C150.762 29.4092 150.613 28.9305 150.319 28.6206C150.032 28.3107 149.581 28.1558 148.966 28.1558C148.468 28.1558 148.031 28.2886 147.655 28.5542C147.278 28.8198 146.985 29.1685 146.775 29.6001V36H145.239V23.25H146.775V28.106ZM167.079 25.2256H163.194V36H161.608V25.2256H157.732V23.9141H167.079V25.2256ZM176.102 33.8833L177.828 27.0186H179.364L176.749 36H175.504L173.321 29.1934L171.196 36H169.951L167.344 27.0186H168.872L170.64 33.7422L172.731 27.0186H173.968L176.102 33.8833ZM182.601 36H181.065V27.0186H182.601V36ZM180.941 24.6362C180.941 24.3872 181.016 24.1769 181.165 24.0054C181.32 23.8338 181.547 23.748 181.846 23.748C182.145 23.748 182.371 23.8338 182.526 24.0054C182.681 24.1769 182.759 24.3872 182.759 24.6362C182.759 24.8853 182.681 25.0928 182.526 25.2588C182.371 25.4248 182.145 25.5078 181.846 25.5078C181.547 25.5078 181.32 25.4248 181.165 25.2588C181.016 25.0928 180.941 24.8853 180.941 24.6362ZM187.15 24.8438V27.0186H188.827V28.2056H187.15V33.7754C187.15 34.1351 187.225 34.4062 187.374 34.5889C187.523 34.766 187.778 34.8545 188.138 34.8545C188.315 34.8545 188.558 34.8213 188.868 34.7549V36C188.464 36.1107 188.071 36.166 187.689 36.166C187.003 36.166 186.486 35.9585 186.137 35.5435C185.789 35.1284 185.614 34.5391 185.614 33.7754V28.2056H183.979V27.0186H185.614V24.8438H187.15ZM192.711 24.8438V27.0186H194.388V28.2056H192.711V33.7754C192.711 34.1351 192.786 34.4062 192.936 34.5889C193.085 34.766 193.34 34.8545 193.699 34.8545C193.876 34.8545 194.12 34.8213 194.43 34.7549V36C194.026 36.1107 193.633 36.166 193.251 36.166C192.565 36.166 192.047 35.9585 191.699 35.5435C191.35 35.1284 191.176 34.5391 191.176 33.7754V28.2056H189.541V27.0186H191.176V24.8438H192.711ZM199.917 36.166C198.699 36.166 197.708 35.7676 196.945 34.9707C196.181 34.1683 195.799 33.0975 195.799 31.7583V31.4761C195.799 30.5851 195.968 29.791 196.306 29.0938C196.649 28.391 197.125 27.8431 197.733 27.4502C198.348 27.0518 199.012 26.8525 199.726 26.8525C200.893 26.8525 201.801 27.2371 202.448 28.0063C203.096 28.7756 203.419 29.8768 203.419 31.3101V31.9492H197.335C197.357 32.8346 197.614 33.5513 198.107 34.0991C198.605 34.6414 199.236 34.9126 200 34.9126C200.542 34.9126 201.001 34.8019 201.377 34.5806C201.754 34.3592 202.083 34.0659 202.365 33.7007L203.303 34.4312C202.551 35.5877 201.422 36.166 199.917 36.166ZM199.726 28.1143C199.106 28.1143 198.586 28.3411 198.165 28.7949C197.744 29.2432 197.484 29.874 197.385 30.6875H201.884V30.5713C201.84 29.791 201.629 29.1878 201.253 28.7617C200.877 28.3301 200.368 28.1143 199.726 28.1143ZM209.545 28.3965C209.313 28.3577 209.061 28.3384 208.79 28.3384C207.783 28.3384 207.099 28.7673 206.74 29.625V36H205.204V27.0186H206.698L206.723 28.0562C207.227 27.2537 207.941 26.8525 208.865 26.8525C209.164 26.8525 209.39 26.8913 209.545 26.9688V28.3965Z" fill="white"/>
<line x1="54.125" y1="1" x2="54.125" y2="59" stroke="#E5E5E5" stroke-width="0.25"/>
</svg>
