<svg width="250" height="59" viewBox="0 0 250 59" fill="none" xmlns="http://www.w3.org/2000/svg">
<mask id="mask0" mask-type="alpha" maskUnits="userSpaceOnUse" x="0" y="0" width="250" height="59">
<rect width="250" height="59" fill="#3A559F"/>
</mask>
<g mask="url(#mask0)">
<rect width="250" height="59" rx="4" fill="#50ABF1"/>
<rect width="59" height="59" fill="white" transform="translate(170)"/>
<path d="M229 0H170V59H229V0Z" fill="#50ABF1"/>
<path d="M177.817 43.7352C181.743 46.2256 186.401 47.6668 191.394 47.6668C205.421 47.6668 216.792 36.2947 216.792 22.2688C216.792 21.9186 216.784 21.571 216.771 21.2245C217.278 20.8252 220.416 18.3101 221.185 16.6933C221.185 16.6933 218.637 17.7523 216.143 18.0018C216.138 18.0018 216.132 18.0029 216.127 18.0029C216.127 18.0029 216.132 18.0005 216.141 17.9944C216.371 17.8408 219.583 15.6538 220.018 13.048C220.018 13.048 218.216 14.01 215.692 14.8517C215.275 14.9905 214.837 15.1269 214.386 15.2534C212.76 13.5173 210.447 12.4337 207.881 12.4337C202.958 12.4337 198.968 16.4218 198.968 21.3411C198.968 22.0353 199.048 22.711 199.199 23.3597C198.511 23.3315 188.035 22.7441 180.908 14.1131C180.908 14.1131 176.648 19.9282 183.446 25.9078C183.446 25.9078 181.38 25.8254 179.597 24.7602C179.597 24.7602 178.942 31.805 186.641 33.6062C186.641 33.6062 185.126 34.18 182.709 33.7709C182.709 33.7709 184.061 39.4631 190.9 39.9951C190.9 39.9951 185.492 44.881 177.814 43.7346L177.817 43.7352Z" fill="white"/>
</g>
</svg>
